<?xml version="1.0" encoding="iso-8859-1"?>
<!-- Uploaded to: SVG Repo, www.svgrepo.com, Generator: SVG Repo Mixer Tools -->
<!DOCTYPE svg PUBLIC "-//W3C//DTD SVG 1.1//EN" "http://www.w3.org/Graphics/SVG/1.1/DTD/svg11.dtd">
<svg fill="#000000" height="800px" width="800px" version="1.1" id="Capa_1" xmlns="http://www.w3.org/2000/svg" xmlns:xlink="http://www.w3.org/1999/xlink" 
	 viewBox="0 0 111.441 111.441" xml:space="preserve">
<g>
	<path d="M53.679,37.505c1.237,0.495,2.535,0.747,3.858,0.747h0c4.276,0,8.065-2.565,9.654-6.536
		c1.032-2.578,0.998-5.403-0.095-7.956c-1.093-2.553-3.116-4.526-5.694-5.557c-1.238-0.496-2.536-0.747-3.858-0.747
		c-4.275,0-8.065,2.565-9.654,6.535c-1.032,2.578-0.998,5.403,0.096,7.956C49.079,34.5,51.101,36.474,53.679,37.505z"/>
	<path d="M91.574,46.735c-0.263-1.272-1.276-2.127-2.522-2.127c-0.368,0-0.736,0.076-1.092,0.227l-6.449,2.721
		c-0.675,0.286-1.993,0.181-2.618-0.209l-10.692-6.692c-0.083-0.052-0.167-0.075-0.25-0.118c-0.419-0.285-0.899-0.469-1.419-0.511
		l-15.125-1.22l-8.627-4.102c-0.79-0.375-1.806-1.399-2.175-2.191l-3.961-8.498c-0.566-1.214-1.971-2.181-3.329-2.354l-1.259-3.554
		c1.597-0.922,2.858-2.359,3.615-4.174c0.947-2.273,0.996-4.858,0.138-7.281C34.398,2.672,30.838,0,26.951,0
		c-0.933,0-1.853,0.158-2.733,0.469c-4.604,1.632-6.899,7.058-5.116,12.097c1.408,3.976,4.967,6.647,8.855,6.647
		c0.428,0,0.853-0.037,1.273-0.103l0.97,2.74c-0.38,0.167-0.707,0.416-0.943,0.749c-0.439,0.62-0.529,1.438-0.246,2.242
		l4.346,12.352c0.44,1.25,1.676,2.76,2.814,3.438l11.3,6.729L44.977,70.43l-2.393,8.722c-0.546,1.992-2.052,5.074-3.288,6.729
		l-6.825,9.145c-1.602,2.146-1.486,5.338,0.258,7.116c0.802,0.816,1.875,1.266,3.022,1.266c1.357,0,2.68-0.629,3.629-1.725
		l8.485-9.796c1.526-1.761,3.269-5.023,3.886-7.271l2.834-10.328l1.208,0.082l-3.247,31.506c-0.283,2.74,1.716,5.209,4.453,5.505
		l0.288,0.031c0.18,0.02,0.359,0.029,0.537,0.029c2.561,0,4.689-1.921,4.952-4.47l3.586-34.795c0.003-0.022,0.011-0.043,0.013-0.065
		l2.104-21.176l9.145,5.084c0.607,0.337,1.394,0.523,2.216,0.523c0.836,0,1.636-0.191,2.251-0.539l7.827-4.424
		c1.332-0.752,2.134-2.516,1.826-4.015L91.574,46.735z"/>
	<path d="M89.117,33.424c-2.11,0-3.828,1.717-3.828,3.827s1.717,3.827,3.828,3.827s3.827-1.717,3.827-3.827
		S91.228,33.424,89.117,33.424z"/>
</g>
</svg>